HIERARCHY
ROOT joint_0
{
	OFFSET 0.000000 0.000000 0.000000
	CHANNELS 6 Xposition Yposition Zposition Zrotation Yrotation Xrotation 
	JOINT joint_1
	{
		OFFSET 13.542969 -4.074463 123.986084
		CHANNELS 3 Zrotation Yrotation Xrotation
		JOINT joint_2
		{
			OFFSET -0.108154 -3.018066 113.860962
			CHANNELS 3 Zrotation Yrotation Xrotation
			JOINT joint_3
			{
				OFFSET -1.139648 -3.876465 113.702026
				CHANNELS 3 Zrotation Yrotation Xrotation
				JOINT joint_4
				{
					OFFSET 13.593506 -8.582153 160.876953
					CHANNELS 3 Zrotation Yrotation Xrotation
					JOINT joint_5
					{
						OFFSET 26.480957 -11.565674 94.427979
						CHANNELS 3 Zrotation Yrotation Xrotation
						End Site
						{
							OFFSET 0.000000 0.000000 0.000000
						}
					}
				}
				JOINT joint_6
				{
					OFFSET 3.003662 -39.658691 88.713989
					CHANNELS 3 Zrotation Yrotation Xrotation
					JOINT joint_7
					{
						OFFSET -25.253906 -162.506348 -28.477051
						CHANNELS 3 Zrotation Yrotation Xrotation
						JOINT joint_8
						{
							OFFSET 23.083252 -8.502686 -295.281982
							CHANNELS 3 Zrotation Yrotation Xrotation
							JOINT joint_9
							{
								OFFSET 20.205566 -32.167908 -263.458008
								CHANNELS 3 Zrotation Yrotation Xrotation
								End Site
								{
									OFFSET 0.000000 0.000000 0.000000
								}
							}
						}
					}
				}
				JOINT joint_10
				{
					OFFSET 12.313232 30.012939 91.642944
					CHANNELS 3 Zrotation Yrotation Xrotation
					JOINT joint_11
					{
						OFFSET 31.960205 162.667969 -19.398926
						CHANNELS 3 Zrotation Yrotation Xrotation
						JOINT joint_12
						{
							OFFSET 51.325195 40.249023 -289.038086
							CHANNELS 3 Zrotation Yrotation Xrotation
							JOINT joint_13
							{
								OFFSET 70.170898 60.433594 -249.556030
								CHANNELS 3 Zrotation Yrotation Xrotation
								End Site
								{
									OFFSET 0.000000 0.000000 0.000000
								}
							}
						}
					}
				}
			}
		}
	}
	JOINT joint_14
	{
		OFFSET -15.093262 -91.803833 -113.326904
		CHANNELS 3 Zrotation Yrotation Xrotation
		JOINT joint_15
		{
			OFFSET 2.288818 -12.306763 -494.206055
			CHANNELS 3 Zrotation Yrotation Xrotation
			JOINT joint_16
			{
				OFFSET -54.691650 0.383423 -424.447006
				CHANNELS 3 Zrotation Yrotation Xrotation
				JOINT joint_17
				{
					OFFSET 202.154297 -21.791382 -80.181999
					CHANNELS 3 Zrotation Yrotation Xrotation
					End Site
					{
						OFFSET 0.000000 0.000000 0.000000
					}
				}
			}
		}
	}
	JOINT joint_18
	{
		OFFSET 10.704102 91.957275 -113.713013
		CHANNELS 3 Zrotation Yrotation Xrotation
		JOINT joint_19
		{
			OFFSET 0.427490 1.374878 -494.359924
			CHANNELS 3 Zrotation Yrotation Xrotation
			JOINT joint_20
			{
				OFFSET -53.071777 2.769531 -424.643028
				CHANNELS 3 Zrotation Yrotation Xrotation
				JOINT joint_21
				{
					OFFSET 200.264648 -28.253052 -82.862999
					CHANNELS 3 Zrotation Yrotation Xrotation
					End Site
					{
						OFFSET 0.000000 0.000000 0.000000
					}
				}
			}
		}
	}
}
MOTION
Frames: 7
Frame Time: 0.016667
-2936.928955 1207.058716 1138.115967 2.559506 -2.645616 -1.053338 0.260393 -0.741202 1.007731 0.264350 0.098344 -0.200783 0.257970 -0.165548 0.155829 0.880727 2.720489 -1.980786 0.000000 0.000000 0.000000 -2.974173 -0.848912 1.960148 -0.319866 -0.209383 -5.194908 0.226177 -0.950458 1.420737 0.000000 0.000000 0.000000 -0.949144 1.538017 -0.511673 0.257902 1.638249 -0.292496 0.175402 0.887478 -0.139325 0.000000 0.000000 0.000000 -3.442886 4.223711 4.639249 -3.291127 -1.497406 -0.408544 -3.196636 0.936067 -1.161543 0.000000 0.000000 0.000000 1.429437 -5.086582 6.426736 1.454938 5.558888 -0.515726 1.293724 3.107038 0.960965 0.000000 0.000000 0.000000 
-2937.073975 1206.993530 1138.230957 2.575898 -2.649380 -1.027243 0.260533 -0.726106 0.972955 0.264321 0.095312 -0.194685 0.258202 -0.158934 0.152778 0.878391 2.720409 -1.972604 0.000000 0.000000 0.000000 -2.970390 -0.862427 1.991585 -0.320300 -0.214885 -5.211228 0.227618 -0.959269 1.425331 0.000000 0.000000 0.000000 -0.942514 1.538585 -0.523130 0.258412 1.635097 -0.288871 0.176305 0.892176 -0.140166 0.000000 0.000000 0.000000 -3.447753 4.213667 4.615126 -3.295730 -1.486818 -0.409702 -3.201139 0.934161 -1.163510 0.000000 0.000000 0.000000 1.421366 -5.115224 6.397859 1.446484 5.586850 -0.513388 1.285279 3.182589 0.968114 0.000000 0.000000 0.000000 
-2937.211670 1206.920898 1138.307007 2.591974 -2.653948 -1.006178 0.261413 -0.710941 0.943259 0.265029 0.092493 -0.188179 0.259057 -0.154823 0.148281 0.876398 2.721751 -1.965019 0.000000 0.000000 0.000000 -2.968648 -0.873482 2.016634 -0.320079 -0.220586 -5.219678 0.228990 -0.968308 1.428637 0.000000 0.000000 0.000000 -0.936603 1.538909 -0.527797 0.258201 1.634502 -0.292691 0.177853 0.896998 -0.138819 0.000000 0.000000 0.000000 -3.452829 4.207177 4.596650 -3.300447 -1.480237 -0.410374 -3.205712 0.933948 -1.165321 0.000000 0.000000 0.000000 1.414205 -5.140810 6.376567 1.439044 5.614712 -0.513518 1.277688 3.241906 0.973331 0.000000 0.000000 0.000000 
-2937.347168 1206.843262 1138.364990 2.608099 -2.659075 -0.986917 0.262863 -0.696186 0.915784 0.266306 0.089650 -0.182722 0.260465 -0.151726 0.144442 0.874799 2.724610 -1.958225 0.000000 0.000000 0.000000 -2.968905 -0.883239 2.038313 -0.319551 -0.226430 -5.224748 0.230406 -0.977765 1.431834 0.000000 0.000000 0.000000 -0.931763 1.539258 -0.530422 0.257667 1.634934 -0.299108 0.179383 0.901385 -0.137158 0.000000 0.000000 0.000000 -3.458251 4.202212 4.580150 -3.305468 -1.475060 -0.410548 -3.210528 0.934918 -1.167098 0.000000 0.000000 0.000000 1.407490 -5.165250 6.358504 1.432086 5.643450 -0.515306 1.270463 3.292283 0.977440 0.000000 0.000000 0.000000 
-2937.479736 1206.768799 1138.416992 2.623419 -2.664489 -0.967265 0.263978 -0.683815 0.887985 0.267297 0.087735 -0.176248 0.261548 -0.148213 0.140452 0.873524 2.727488 -1.952561 0.000000 0.000000 0.000000 -2.966819 -0.892832 2.057841 -0.319149 -0.232056 -5.229473 0.231627 -0.985752 1.434907 0.000000 0.000000 0.000000 -0.925182 1.539614 -0.534269 0.257122 1.634831 -0.305060 0.180863 0.905263 -0.135238 0.000000 0.000000 0.000000 -3.463686 4.196193 4.561795 -3.310641 -1.466860 -0.408440 -3.215182 0.934897 -1.168924 0.000000 0.000000 0.000000 1.401299 -5.185780 6.340028 1.425641 5.666749 -0.517315 1.263691 3.339483 0.981294 0.000000 0.000000 0.000000 
-2937.610840 1206.706421 1138.464966 2.638676 -2.670835 -0.946048 0.263582 -0.672125 0.861540 0.266782 0.085532 -0.171561 0.261138 -0.145333 0.136645 0.872759 2.732573 -1.947759 0.000000 0.000000 0.000000 -2.958931 -0.902165 2.074979 -0.318995 -0.236774 -5.233905 0.232459 -0.991165 1.437072 0.000000 0.000000 0.000000 -0.913985 1.540797 -0.540762 0.256685 1.634120 -0.309107 0.181939 0.908622 -0.134308 0.000000 0.000000 0.000000 -3.469355 4.188782 4.538333 -3.316222 -1.453124 -0.401326 -3.219545 0.931935 -1.170958 0.000000 0.000000 0.000000 1.395626 -5.200705 6.318661 1.419696 5.682144 -0.518706 1.257442 3.383938 0.984982 0.000000 0.000000 0.000000 
-2937.741211 1206.648071 1138.505981 2.653541 -2.677849 -0.924795 0.262755 -0.661368 0.835936 0.265864 0.084123 -0.167050 0.260262 -0.143612 0.133631 0.872485 2.738149 -1.944508 0.000000 0.000000 0.000000 -2.948737 -0.910990 2.089375 -0.318975 -0.241054 -5.237813 0.233039 -0.994909 1.438673 0.000000 0.000000 0.000000 -0.901431 1.542321 -0.548882 0.256262 1.633187 -0.312748 0.182941 0.911386 -0.133130 0.000000 0.000000 0.000000 -3.475134 4.180661 4.513330 -3.322037 -1.436424 -0.391863 -3.223821 0.928253 -1.173040 0.000000 0.000000 0.000000 1.390361 -5.211907 6.297020 1.414155 5.692838 -0.520001 1.251599 3.424444 0.988285 0.000000 0.000000 0.000000 
